<svg id="Layer_1" xmlns="http://www.w3.org/2000/svg" viewBox="0 0 188.8 122"><style>.st0{fill:#cacbcb}.st1{fill:#f05b42}.st2{fill:none}.st3{fill:#fff}</style><path class="st0" d="M86.8 53v16.5l15.9-9.1-15.9-9.2zM72.5 5.3L68 2.7v75.4l8.8-5.1-4.3-2.5z"/><path class="st1" d="M89.3 15.1l-4.1-2.4v55.5l4.1-2.4z"/><path class="st0" d="M80.9 10.1l-4.1-2.3V73l8.3-4.7-4.2-2.6zM85.2 68.3v-.1l-.1.1z"/><g><path class="st2" d="M68 87.8l34.7-20.1.1-4.9h-.1L68 82.9z"/><path class="st0" d="M119.9 72.6l-8.8-5-.1 4.9-43 25v5.2z"/><path class="st1" d="M102.7 62.8l-4.1-2.4L68 78.1v4.8z"/><path class="st0" d="M68 87.8v4.7l43-25-8.2-4.7-.1 4.9z"/><path class="st0" d="M102.8 62.7l-.1.1h.1z"/></g><g><path class="st2" d="M136.2 62.8L93.4 38.1l-4.2 2.3v.3l42.7 24.6zM128 67.6l-34.6-20-4.2 2.3v.3l34.5 19.9z"/><path class="st1" d="M89.2 50.2l.1 4.9 30.4 17.4 4-2.4z"/><path class="st0" d="M136.2 62.8l4.6-2.7-51.6-29.5v9.8l4.2-2.3zM128 67.6l3.9-2.3-42.7-24.6v9.2l4.2-2.3z"/><path class="st2" d="M89 40.5l.2.2v-.3zM89 50.1l.2.1v-.3z"/></g><g><path class="st3" d="M14 110.3h3.7c1.7 0 3 .2 3.7.6.8.4 1.2 1 1.2 1.8 0 .6-.2 1-.6 1.4-.4.4-1.1.6-1.9.7v.1c2 .2 2.9 1 2.9 2.2 0 .8-.4 1.5-1.2 2-.8.5-1.9.7-3.3.7H14v-9.5zm1.5 3.9H18c1.1 0 1.8-.1 2.3-.4.5-.2.7-.6.7-1.2 0-.5-.3-.9-.8-1.1-.5-.2-1.3-.3-2.5-.3h-2.2v3zm0 1v3.5h2.7c1 0 1.8-.1 2.4-.4.5-.3.8-.7.8-1.4 0-.6-.3-1-.8-1.3-.5-.3-1.4-.4-2.5-.4h-2.6zM36.2 114.9c0 1.5-.5 2.7-1.6 3.5-1 .9-2.5 1.3-4.4 1.3-1.9 0-3.4-.4-4.4-1.3-1-.8-1.6-2-1.6-3.6 0-1.5.5-2.7 1.6-3.5 1-.8 2.5-1.3 4.4-1.3 1.9 0 3.3.4 4.4 1.3 1.1.9 1.6 2.1 1.6 3.6zm-10.3 0c0 1.3.4 2.2 1.1 2.9s1.8 1 3.3 1c1.4 0 2.5-.3 3.2-1 .7-.7 1.1-1.6 1.1-2.9 0-1.3-.4-2.2-1.1-2.9-.7-.6-1.8-1-3.2-1-1.4 0-2.5.3-3.3 1-.7.7-1.1 1.7-1.1 2.9zM46.4 119.6l-1.6-3h-5.2l-1.6 3h-1.5l5.1-9.4h1.3l5.1 9.4h-1.6zm-2.1-4l-1.5-2.9c-.2-.4-.4-.8-.6-1.3-.1.4-.3.9-.6 1.3l-1.5 2.9h4.2zM50.4 115.7v3.9h-1.5v-9.3h3.5c1.6 0 2.8.2 3.5.7.8.4 1.1 1.1 1.1 2 0 1.2-.9 2.1-2.6 2.5l3.5 4.2h-1.8l-3.1-3.9h-2.6zm0-.9h2.1c1.1 0 1.8-.2 2.3-.5.5-.3.7-.8.7-1.4 0-.6-.3-1.1-.8-1.3-.5-.3-1.3-.4-2.4-.4h-2v3.6zM69.6 114.8c0 1.5-.6 2.7-1.7 3.5s-2.8 1.2-5 1.2h-3.6v-9.3h4c2 0 3.6.4 4.7 1.2 1.1.9 1.6 2 1.6 3.4zm-1.6.1c0-1.2-.4-2.1-1.3-2.8-.8-.6-2.1-.9-3.8-.9h-2.2v7.5h1.8c1.8 0 3.1-.3 4-1 1.1-.6 1.5-1.6 1.5-2.8zM73.2 115.7v3.9h-1.5v-9.3h3.5c1.6 0 2.8.2 3.5.7.8.4 1.1 1.1 1.1 2 0 1.2-.9 2.1-2.6 2.5l3.5 4.2H79l-3.1-3.9h-2.7zm0-.9h2.1c1.1 0 1.8-.2 2.3-.5.5-.3.7-.8.7-1.4 0-.6-.3-1.1-.8-1.3-.5-.3-1.3-.4-2.4-.4h-2v3.6zM93.3 114.9c0 1.5-.5 2.7-1.6 3.5-1 .9-2.5 1.3-4.4 1.3-1.9 0-3.4-.4-4.4-1.3-1-.8-1.6-2-1.6-3.6 0-1.5.5-2.7 1.6-3.5 1-.8 2.5-1.3 4.4-1.3 1.9 0 3.3.4 4.4 1.3 1.1.9 1.6 2.1 1.6 3.6zm-10.3 0c0 1.3.4 2.2 1.1 2.9s1.8 1 3.3 1c1.4 0 2.5-.3 3.2-1 .7-.7 1.1-1.6 1.1-2.9 0-1.3-.4-2.2-1.1-2.9-.7-.6-1.8-1-3.2-1-1.4 0-2.5.3-3.3 1-.7.7-1.1 1.7-1.1 2.9zM106.6 114.9c0 1.5-.5 2.7-1.6 3.5-1 .9-2.5 1.3-4.4 1.3-1.9 0-3.4-.4-4.4-1.3-1-.8-1.6-2-1.6-3.6 0-1.5.5-2.7 1.6-3.5 1-.8 2.5-1.3 4.4-1.3 1.9 0 3.3.4 4.4 1.3 1.1.9 1.6 2.1 1.6 3.6zm-10.3 0c0 1.3.4 2.2 1.1 2.9s1.8 1 3.3 1c1.4 0 2.5-.3 3.2-1 .7-.7 1.1-1.6 1.1-2.9 0-1.3-.4-2.2-1.1-2.9-.7-.6-1.8-1-3.2-1-1.4 0-2.5.3-3.3 1-.7.7-1.1 1.7-1.1 2.9zM114.4 119.6l-4.4-8.3c.1.7.1 1.4.1 2.3v5.9h-1.4v-9.3h2.3l4.1 7.7h.1l4.1-7.7h2.2v9.3H120v-6c0-.7 0-1.4.1-2.2h-.1l-4.4 8.3h-1.2z"/><g><path class="st0" d="M132 119.6l-4.8-8.6h-.1c0 .5.1 1.1.1 1.6v7h-.9v-9.3h1.4l4.6 8.2h.1l4.6-8.2h1.4v9.3h-.9v-7.1c0-.5 0-1 .1-1.5h-.1l-4.8 8.6h-.7zM148.6 119.6h-7.1v-9.3h7.1v.6h-6.2v3.5h5.8v.6h-5.8v4h6.2v.6zM160.9 114.8c0 1.6-.6 2.7-1.7 3.6-1.1.8-2.8 1.2-5 1.2h-3.1v-9.3h3.5c2.1 0 3.6.4 4.7 1.2 1.1.7 1.6 1.8 1.6 3.3zm-1 .1c0-1.3-.5-2.3-1.4-3-.9-.7-2.3-1-4.1-1H152v8.2h2.1c3.9-.1 5.8-1.5 5.8-4.2zM163.5 119.6v-9.3h.9v9.3h-.9zM173.8 116.3h-5.3l-1.8 3.3h-1l5.2-9.4h.6l5.1 9.4h-1l-1.8-3.3zm-4.9-.6h4.6l-1.8-3.4c-.1-.3-.3-.6-.5-1.1-.2.4-.3.8-.5 1.1l-1.8 3.4z"/></g><path class="st1" d="M123.2 118.1h1.1v1.5h-1.1z"/></g></svg>