<?xml version="1.0" encoding="utf-8"?>
<!-- Generator: Adobe Illustrator 21.1.0, SVG Export Plug-In . SVG Version: 6.00 Build 0)  -->
<svg version="1.1" id="Layer_1" xmlns="http://www.w3.org/2000/svg" xmlns:xlink="http://www.w3.org/1999/xlink" x="0px" y="0px"
	 viewBox="0 0 781.5 79.7" style="enable-background:new 0 0 781.5 79.7;" xml:space="preserve">
<style type="text/css">
	.st0{fill:#333333;}
	.st1{fill:#F05C40;}
	.st2{enable-background:new    ;}
	.st3{fill:#5C5C5C;}
</style>
<title>Asset 3</title>
<g id="Layer_2">
	<g id="Layer_1-2">
		<path class="st0" d="M16.9,34.2L16.9,34.2v3.9l3.4-2L47.9,52l3.3-1.9L16.9,30.3V34.2z M16.9,22.5v3.9l0,0v4l3.4-2l34.4,19.9
			l3.3-1.9L16.9,22.5z"/>
		<polygon class="st0" points="16.9,42 24.2,46.2 16.9,50.5 		"/>
		<path class="st1" d="M44.5,54L16.9,38.1V9.7l-3.3-1.9v44.6L0,60.2v3.9l27.6-15.9l0,0L41.1,56L44.5,54z M24.2,46.2l-7.3,4.2V42
			L24.2,46.2L24.2,46.2z"/>
		<polygon class="st0" points="24.2,46.2 16.9,42 16.9,42 24.2,46.2 		"/>
		<polygon class="st0" points="13.6,52.4 13.5,52.4 10.1,50.4 10.1,5.8 6.8,3.9 6.8,56.3 6.8,56.3 3.3,54.3 3.3,1.9 0,0 0,60.2 
			13.6,52.4 		"/>
		<polygon class="st0" points="3.3,58.3 3.3,58.3 3.3,58.3 		"/>
		<polygon class="st0" points="10.1,54.4 10.1,54.4 10.1,54.4 		"/>
		<polygon class="st0" points="41.1,56 27.6,48.2 27.6,48.2 27.6,52.1 0,68 0,71.9 34.3,52.1 34.3,56 0,75.9 0,79.7 		"/>
		<g class="st2">
			<path class="st3" d="M123.3,49.3c0,1.5-0.2,2.8-0.6,3.9s-0.9,2.1-1.7,2.9c-0.7,0.8-1.6,1.5-2.5,2c-1,0.5-2.1,0.9-3.3,1.2
				c-1.2,0.3-2.5,0.5-3.8,0.6s-2.8,0.2-4.2,0.2H84.8V21.2h21.9c1.1,0,2.2,0,3.3,0.1c1.1,0.1,2.2,0.3,3.2,0.5c1,0.3,2,0.6,2.9,1.1
				c0.9,0.5,1.6,1,2.3,1.8c0.7,0.7,1.2,1.6,1.5,2.7c0.4,1,0.6,2.3,0.6,3.7c0,1.3-0.2,2.4-0.5,3.3c-0.3,0.9-0.8,1.7-1.4,2.4
				c-0.6,0.7-1.4,1.2-2.4,1.6c-1,0.4-2.1,0.8-3.5,1c1.9,0.1,3.5,0.5,4.8,1c1.3,0.5,2.4,1.2,3.3,2c0.8,0.8,1.5,1.9,1.9,3
				C123.1,46.5,123.3,47.9,123.3,49.3z M117.2,31.1c0-0.5,0-1.1-0.1-1.6c-0.1-0.5-0.2-1.1-0.5-1.6c-0.3-0.5-0.6-1-1.1-1.4
				c-0.5-0.4-1.2-0.8-2.1-1.1c-0.9-0.3-1.9-0.6-3.2-0.7c-1.3-0.2-2.8-0.3-4.6-0.3H88.3v13.5h17.2c2.5,0,4.6-0.2,6.1-0.5
				c1.5-0.4,2.7-0.9,3.5-1.5c0.8-0.6,1.4-1.3,1.6-2.2C117,32.9,117.2,32,117.2,31.1z M119.6,49.3c0-1.5-0.3-2.7-0.8-3.8
				c-0.5-1-1.3-1.9-2.3-2.5c-1.1-0.7-2.4-1.1-4.1-1.5s-3.6-0.5-5.9-0.5H88.3v15.8H107c2.4,0,4.3-0.1,6-0.4c1.6-0.3,2.9-0.7,3.9-1.3
				c1-0.6,1.7-1.4,2.1-2.4S119.6,50.6,119.6,49.3z"/>
			<path class="st3" d="M179.9,40.6c0,3.5-0.6,6.5-1.9,9c-1.3,2.5-3,4.6-5.2,6.3c-2.2,1.7-4.8,2.9-7.8,3.7c-3,0.8-6.2,1.2-9.7,1.2
				c-3.5,0-6.7-0.4-9.8-1.2c-3-0.8-5.6-2-7.9-3.7c-2.2-1.6-4-3.7-5.2-6.3c-1.3-2.5-1.9-5.5-1.9-9c0-2.3,0.3-4.4,0.9-6.3
				c0.6-1.9,1.4-3.6,2.5-5.1s2.3-2.8,3.8-3.9c1.5-1.1,3.2-2,5-2.7c1.8-0.7,3.8-1.3,5.9-1.6c2.1-0.3,4.3-0.5,6.6-0.5
				c3.5,0,6.7,0.4,9.7,1.2s5.6,2,7.8,3.7c2.2,1.6,3.9,3.7,5.2,6.3S179.9,37.2,179.9,40.6z M176.2,40.6c0-2.8-0.4-5.2-1.3-7.3
				s-2.2-3.9-4-5.3s-3.9-2.5-6.6-3.3c-2.6-0.7-5.6-1.1-9.1-1.1s-6.5,0.4-9.1,1.1c-2.6,0.8-4.8,1.9-6.6,3.3c-1.8,1.4-3.1,3.2-4,5.3
				c-0.9,2.1-1.4,4.5-1.4,7.3c0,2.8,0.5,5.2,1.4,7.3c0.9,2.1,2.2,3.9,4,5.3c1.8,1.4,4,2.5,6.6,3.3c2.6,0.7,5.7,1.1,9.1,1.1
				s6.5-0.4,9.1-1.1c2.6-0.7,4.8-1.8,6.6-3.3s3.1-3.2,4-5.3C175.8,45.8,176.2,43.4,176.2,40.6z"/>
			<path class="st3" d="M225.4,60v-4.3c-1.4,0.7-2.9,1.4-4.6,2s-3.5,1.2-5.5,1.6c-1.9,0.5-3.9,0.8-5.9,1c-2,0.2-4,0.4-5.9,0.4
				c-2.5,0-4.8-0.2-6.8-0.7s-3.7-1.1-5.1-2c-1.4-0.9-2.5-2-3.2-3.3s-1.1-2.9-1.1-4.6c0-1.7,0.4-3.3,1.3-4.6c0.9-1.3,2.1-2.5,3.7-3.5
				c1.6-1,3.6-1.8,5.9-2.5c2.3-0.7,4.9-1.3,7.7-1.8s5.9-0.9,9.2-1.2c3.3-0.3,6.8-0.6,10.4-0.8v-3c0-1.2-0.2-2.3-0.7-3.2
				s-1.1-1.7-1.9-2.4c-0.8-0.7-1.8-1.3-2.9-1.7c-1.1-0.5-2.3-0.8-3.5-1.1c-1.3-0.3-2.6-0.5-4-0.6c-1.4-0.1-2.8-0.2-4.2-0.2
				c-1.9,0-3.6,0.1-5.2,0.3c-1.6,0.2-3,0.4-4.4,0.8s-2.7,0.7-3.9,1.1c-1.2,0.4-2.5,0.9-3.8,1.4v-4.1c2.6-0.7,5.4-1.3,8.4-1.8
				c3-0.5,6.1-0.8,9.5-0.8c2.8,0,5.5,0.2,7.9,0.7c2.5,0.5,4.6,1.2,6.4,2.3c1.8,1.1,3.2,2.4,4.3,4.1c1,1.7,1.6,3.7,1.6,6.1V60H225.4z
				 M225.4,39c-6.2,0.3-11.4,0.8-15.8,1.4c-4.4,0.6-7.9,1.4-10.7,2.3c-2.8,0.9-4.8,2-6.1,3.2c-1.3,1.2-1.9,2.6-1.9,4.1
				c0,1.2,0.3,2.3,0.9,3.3c0.6,1,1.5,1.8,2.7,2.4s2.6,1.1,4.3,1.5s3.6,0.5,5.7,0.5c1.2,0,2.5-0.1,3.9-0.2s2.7-0.3,4-0.6
				c1.3-0.3,2.6-0.6,3.9-0.9c1.3-0.3,2.5-0.7,3.6-1.1c1.1-0.4,2.2-0.9,3.1-1.3c0.9-0.5,1.7-1,2.4-1.4V39z"/>
			<path class="st3" d="M268.2,23.6c-1-0.2-2.2-0.3-3.7-0.3c-2.1,0-4.1,0.3-6,0.8c-1.9,0.5-3.6,1.2-5.2,2.1
				c-1.6,0.9-3.1,1.9-4.4,3.1c-1.4,1.2-2.6,2.4-3.7,3.7v27h-3.5V21.2h3.5v7.9c1.3-1.3,2.6-2.5,4.1-3.6c1.5-1.1,3-2,4.7-2.8
				c1.6-0.8,3.4-1.4,5.2-1.8c1.8-0.4,3.7-0.7,5.6-0.7c0.7,0,1.3,0,1.8,0c0.5,0,1,0.1,1.5,0.1c0.4,0,0.9,0.1,1.3,0.2
				c0.4,0.1,0.8,0.1,1.2,0.2v3.5C269.9,24,269.2,23.8,268.2,23.6z"/>
			<path class="st3" d="M319.4,40.6c0,2.5-0.3,4.7-0.8,6.6s-1.2,3.6-2.2,5c-0.9,1.4-2.1,2.6-3.4,3.6s-2.8,1.8-4.5,2.4
				c-1.7,0.6-3.4,1-5.4,1.3s-4,0.4-6.1,0.4H277V21.2h20c3.2,0,6.1,0.3,8.9,0.9c2.7,0.6,5.1,1.7,7.1,3.2c2,1.5,3.6,3.5,4.7,6
				C318.9,33.8,319.4,36.9,319.4,40.6z M315.8,40.6c0-2.1-0.2-4-0.6-5.6s-1-3-1.8-4.2s-1.7-2.2-2.8-3c-1.1-0.8-2.4-1.5-3.8-2
				c-1.4-0.5-2.9-0.9-4.6-1.1c-1.6-0.2-3.4-0.3-5.2-0.3h-16.5v32.4H297c2.8,0,5.3-0.2,7.6-0.8c2.3-0.5,4.3-1.4,5.9-2.6
				c1.7-1.2,2.9-2.9,3.9-5C315.3,46.4,315.8,43.8,315.8,40.6z"/>
			<path class="st3" d="M356.2,23.6c-1-0.2-2.2-0.3-3.7-0.3c-2.1,0-4.1,0.3-6,0.8c-1.9,0.5-3.6,1.2-5.2,2.1
				c-1.6,0.9-3.1,1.9-4.4,3.1c-1.4,1.2-2.6,2.4-3.7,3.7v27h-3.5V21.2h3.5v7.9c1.3-1.3,2.6-2.5,4.1-3.6c1.5-1.1,3-2,4.7-2.8
				c1.6-0.8,3.4-1.4,5.2-1.8c1.8-0.4,3.7-0.7,5.6-0.7c0.7,0,1.3,0,1.8,0c0.5,0,1,0.1,1.5,0.1c0.4,0,0.9,0.1,1.3,0.2
				c0.4,0.1,0.8,0.1,1.2,0.2v3.5C358,24,357.2,23.8,356.2,23.6z"/>
			<path class="st3" d="M411.7,40.6c0,3.5-0.6,6.5-1.9,9c-1.3,2.5-3,4.6-5.2,6.3c-2.2,1.7-4.8,2.9-7.8,3.7c-3,0.8-6.2,1.2-9.7,1.2
				c-3.5,0-6.7-0.4-9.8-1.2c-3-0.8-5.6-2-7.9-3.7c-2.2-1.6-4-3.7-5.2-6.3c-1.3-2.5-1.9-5.5-1.9-9c0-2.3,0.3-4.4,0.9-6.3
				s1.4-3.6,2.5-5.1s2.3-2.8,3.8-3.9c1.5-1.1,3.2-2,5-2.7c1.8-0.7,3.8-1.3,5.9-1.6s4.3-0.5,6.6-0.5c3.5,0,6.7,0.4,9.7,1.2
				c3,0.8,5.6,2,7.8,3.7c2.2,1.6,3.9,3.7,5.2,6.3C411,34.1,411.7,37.2,411.7,40.6z M408,40.6c0-2.8-0.4-5.2-1.3-7.3
				c-0.9-2.1-2.2-3.9-4-5.3c-1.8-1.4-3.9-2.5-6.6-3.3c-2.6-0.7-5.6-1.1-9.1-1.1c-3.5,0-6.5,0.4-9.1,1.1s-4.8,1.9-6.6,3.3
				s-3.1,3.2-4,5.3c-0.9,2.1-1.4,4.5-1.4,7.3c0,2.8,0.5,5.2,1.4,7.3c0.9,2.1,2.2,3.9,4,5.3s4,2.5,6.6,3.3c2.6,0.7,5.7,1.1,9.1,1.1
				c3.5,0,6.5-0.4,9.1-1.1c2.6-0.7,4.8-1.8,6.6-3.3c1.8-1.4,3.1-3.2,4-5.3C407.6,45.8,408,43.4,408,40.6z"/>
			<path class="st3" d="M468.6,40.6c0,3.5-0.6,6.5-1.9,9c-1.3,2.5-3,4.6-5.2,6.3c-2.2,1.7-4.8,2.9-7.8,3.7c-3,0.8-6.2,1.2-9.7,1.2
				c-3.5,0-6.7-0.4-9.8-1.2c-3-0.8-5.6-2-7.9-3.7c-2.2-1.6-4-3.7-5.2-6.3c-1.3-2.5-1.9-5.5-1.9-9c0-2.3,0.3-4.4,0.9-6.3
				s1.4-3.6,2.5-5.1s2.3-2.8,3.8-3.9c1.5-1.1,3.2-2,5-2.7c1.8-0.7,3.8-1.3,5.9-1.6s4.3-0.5,6.6-0.5c3.5,0,6.7,0.4,9.7,1.2
				c3,0.8,5.6,2,7.8,3.7c2.2,1.6,3.9,3.7,5.2,6.3C468,34.1,468.6,37.2,468.6,40.6z M465,40.6c0-2.8-0.4-5.2-1.3-7.3
				c-0.9-2.1-2.2-3.9-4-5.3c-1.8-1.4-3.9-2.5-6.6-3.3c-2.6-0.7-5.6-1.1-9.1-1.1c-3.5,0-6.5,0.4-9.1,1.1s-4.8,1.9-6.6,3.3
				s-3.1,3.2-4,5.3c-0.9,2.1-1.4,4.5-1.4,7.3c0,2.8,0.5,5.2,1.4,7.3c0.9,2.1,2.2,3.9,4,5.3s4,2.5,6.6,3.3c2.6,0.7,5.7,1.1,9.1,1.1
				c3.5,0,6.5-0.4,9.1-1.1c2.6-0.7,4.8-1.8,6.6-3.3c1.8-1.4,3.1-3.2,4-5.3C464.6,45.8,465,43.4,465,40.6z"/>
			<path class="st3" d="M482.6,21.2v6c0.8-0.7,1.8-1.5,2.8-2.3c1-0.8,2.1-1.6,3.4-2.2s2.6-1.2,4-1.7c1.4-0.5,3-0.7,4.6-0.7
				c2.6,0,4.9,0.6,7,1.8c2,1.2,3.6,3,4.9,5.5c1.2-1.1,2.5-2.1,3.7-3s2.6-1.7,3.9-2.3c1.3-0.6,2.7-1.1,4.2-1.4
				c1.4-0.3,2.9-0.5,4.4-0.5c1.9,0,3.7,0.3,5.3,1c1.6,0.7,2.9,1.6,4.1,2.7c1.1,1.2,2,2.5,2.6,4.1c0.6,1.6,0.9,3.2,0.9,5v27h-3.5
				V33.9c0-1.6-0.2-3.1-0.6-4.3c-0.4-1.3-1-2.4-1.8-3.2c-0.8-0.9-1.9-1.6-3.1-2s-2.8-0.7-4.6-0.7c-1.4,0-2.8,0.2-4.2,0.6
				c-1.4,0.4-2.7,0.9-4,1.6c-1.3,0.7-2.4,1.4-3.5,2.3c-1.1,0.8-2.1,1.7-2.9,2.6c0.1,0.5,0.1,1,0.2,1.4s0,0.8,0,1.4V60h-3.5V33.9
				c0-1.9-0.3-3.5-0.8-4.9c-0.5-1.3-1.2-2.4-2.1-3.2c-0.9-0.8-2-1.4-3.2-1.7c-1.2-0.3-2.6-0.5-4-0.5c-1.4,0-2.7,0.2-4.1,0.7
				c-1.3,0.5-2.6,1.1-3.9,1.8s-2.4,1.6-3.4,2.5s-1.9,1.9-2.7,2.8V60H479V21.2H482.6z"/>
		</g>
		<g class="st2">
			<path class="st3" d="M547.5,60v-6.1h4.9V60H547.5z"/>
		</g>
		<g class="st2">
			<path class="st3" d="M611.3,60V27L590,60h-3.1l-21.4-33.2V60h-3.5V21.2h3.8l22.8,35.2L611,21.2h3.8V60H611.3z"/>
			<path class="st3" d="M627.9,60V21.2h32.4v3.3h-28.5v13.4h27.1v3.2h-27.1v15.6h29V60H627.9z"/>
			<path class="st3" d="M714,40.6c0,2.5-0.3,4.7-0.8,6.6s-1.2,3.6-2.2,5c-0.9,1.4-2.1,2.6-3.4,3.6s-2.8,1.8-4.5,2.4
				c-1.7,0.6-3.4,1-5.4,1.3s-4,0.4-6.1,0.4h-20.1V21.2h20c3.2,0,6.1,0.3,8.9,0.9c2.7,0.6,5.1,1.7,7.1,3.2c2,1.5,3.6,3.5,4.7,6
				C713.5,33.8,714,36.9,714,40.6z M710.4,40.6c0-2.1-0.2-4-0.6-5.6s-1-3-1.8-4.2s-1.7-2.2-2.8-3c-1.1-0.8-2.4-1.5-3.8-2
				c-1.4-0.5-2.9-0.9-4.6-1.1c-1.6-0.2-3.4-0.3-5.2-0.3h-16.5v32.4h16.5c2.8,0,5.3-0.2,7.6-0.8c2.3-0.5,4.3-1.4,5.9-2.6
				c1.7-1.2,2.9-2.9,3.9-5C710,46.4,710.4,43.8,710.4,40.6z"/>
			<path class="st3" d="M724.3,60V21.2h3.5V60H724.3z"/>
			<path class="st3" d="M776.6,60l-5.3-10.3h-26.4L739.5,60h-3.9l20.3-38.9h4.2L780.4,60H776.6z M758,24.6l-11.5,21.9h22.9L758,24.6
				z"/>
		</g>
	</g>
</g>
</svg>
